<svg width="1440" height="820" viewBox="0 0 1440 820" fill="none" xmlns="http://www.w3.org/2000/svg">
<g clip-path="url(#clip0_61385_101)">
<circle cx="888" cy="-100" r="559" transform="rotate(-180 888 -100)" fill="url(#paint0_radial_61385_101)"/>
<circle cx="467" cy="-139" r="559" transform="rotate(-180 467 -139)" fill="url(#paint1_radial_61385_101)"/>
<rect x="541" y="140" width="358" height="540" fill="#202024"/>
<mask id="mask0_61385_101" style="mask-type:alpha" maskUnits="userSpaceOnUse" x="530" y="140" width="358" height="540">
<rect x="530" y="140" width="358" height="540" fill="#202024"/>
</mask>
<g mask="url(#mask0_61385_101)">
<path d="M888 201.492V-256.824L708.5 -360L529 -256.824V201.492L708.5 304.674L888 201.492Z" fill="url(#paint2_linear_61385_101)"/>
<g style="mix-blend-mode:luminosity" opacity="0.4">
<path d="M530.801 99.3496V202.159L620.101 253.569L709.4 202.159V99.3496L620.101 47.9399L530.801 99.3496Z" fill="url(#paint3_linear_61385_101)"/>
<path d="M530.801 -3.46505V99.3445L620.101 150.754L709.4 99.3445V-3.46505L620.101 -54.8747L530.801 -3.46505Z" fill="url(#paint4_linear_61385_101)"/>
<path d="M709.4 202.159V99.3492L798.7 47.9395L888 99.3492V202.159L798.7 253.568L709.4 202.159Z" fill="url(#paint5_linear_61385_101)"/>
<path d="M888 -3.46505V99.3445L798.7 150.754L709.4 99.3445V-3.46505L798.7 -54.8747L888 -3.46505Z" fill="url(#paint6_linear_61385_101)"/>
<path d="M798.7 253.59V150.781L709.4 99.3711L620.101 150.781V253.59L709.4 305L798.7 253.59Z" fill="url(#paint7_linear_61385_101)"/>
</g>
</g>
<rect x="680" y="156" width="80" height="8" fill="#121214"/>
<rect x="688" width="64" height="158" fill="url(#paint8_linear_61385_101)"/>
</g>
<defs>
<radialGradient id="paint0_radial_61385_101" cx="0" cy="0" r="1" gradientUnits="userSpaceOnUse" gradientTransform="translate(888 -100) rotate(90) scale(559)">
<stop stop-color="#FFC323"/>
<stop offset="1" stop-color="#121214" stop-opacity="0"/>
</radialGradient>
<radialGradient id="paint1_radial_61385_101" cx="0" cy="0" r="1" gradientUnits="userSpaceOnUse" gradientTransform="translate(467 -139) rotate(90) scale(559)">
<stop stop-color="#FF3D6E"/>
<stop offset="1" stop-color="#121214" stop-opacity="0"/>
</radialGradient>
<linearGradient id="paint2_linear_61385_101" x1="529" y1="-344.234" x2="968.976" y2="-283.679" gradientUnits="userSpaceOnUse">
<stop stop-color="#FF008E"/>
<stop offset="1" stop-color="#FFCD1E"/>
</linearGradient>
<linearGradient id="paint3_linear_61385_101" x1="620.101" y1="248.84" x2="531.185" y2="97.1039" gradientUnits="userSpaceOnUse">
<stop stop-color="#8257E5"/>
<stop offset="1" stop-color="#FF008E" stop-opacity="0"/>
</linearGradient>
<linearGradient id="paint4_linear_61385_101" x1="620.101" y1="146.026" x2="531.185" y2="-5.71074" gradientUnits="userSpaceOnUse">
<stop stop-color="#8257E5"/>
<stop offset="1" stop-color="#FF008E" stop-opacity="0"/>
</linearGradient>
<linearGradient id="paint5_linear_61385_101" x1="888" y1="207.937" x2="709.676" y2="100.328" gradientUnits="userSpaceOnUse">
<stop stop-color="#FF008E" stop-opacity="0"/>
<stop offset="1" stop-color="#FFCD1E"/>
</linearGradient>
<linearGradient id="paint6_linear_61385_101" x1="798.7" y1="146.026" x2="887.615" y2="-5.71073" gradientUnits="userSpaceOnUse">
<stop stop-color="#8257E5"/>
<stop offset="1" stop-color="#FF008E" stop-opacity="0"/>
</linearGradient>
<linearGradient id="paint7_linear_61385_101" x1="709.4" y1="104.099" x2="798.316" y2="255.836" gradientUnits="userSpaceOnUse">
<stop stop-color="#8257E5"/>
<stop offset="1" stop-color="#FF008E" stop-opacity="0"/>
</linearGradient>
<linearGradient id="paint8_linear_61385_101" x1="649.5" y1="4.93019e-08" x2="782" y2="158" gradientUnits="userSpaceOnUse">
<stop stop-color="#FF008E"/>
<stop offset="1" stop-color="#FFCD1E"/>
</linearGradient>
<clipPath id="clip0_61385_101">
<rect width="1440" height="820" fill="white"/>
</clipPath>
</defs>
</svg>
